<svg id="Слой_1" data-name="Слой 1" xmlns="http://www.w3.org/2000/svg" viewBox="0 0 472.53543 202.67717">
  <g>
    <g>
      <path d="M29.69285,136.18758H22.853l24.4082-69.69629H53.957Z"/>
      <path d="M53.45931,101.33993l25.56006,10.51171-1.87207,5.54395-31.104-13.17578V98.45907l31.104-13.17579,1.87207,5.54395Z"/>
      <path d="M102.23025,75.88857l-21.12,60.3h6.84l20.99-60.3Z"/>
      <path d="M114.29867,90.82723l1.87207-5.54395,31.10351,13.17579v5.76074l-31.10351,13.17578-1.87207-5.54395,25.55957-10.51171Z"/>
      <polygon points="127.972 66.489 125.772 72.759 85.64 72.759 86.98 68.899 87.82 66.489 127.972 66.489"/>
    </g>
    <g>
      <path d="M228.44683,72.972q-2.23242,2.44848-5.04,5.436-2.80811,2.98827-5.86719,6.12011-3.06151,3.13183-6.084,6.15576-3.02492,3.02418-5.68848,5.61622a64.23715,64.23715,0,0,1,6.55176,5.32763q3.457,3.1692,6.76855,6.76807,3.31054,3.60132,6.22754,7.34424a61.88887,61.88887,0,0,1,4.86035,7.12793h-8.208a71.03605,71.03605,0,0,0-4.96778-6.8042q-2.80811-3.41822-5.94043-6.55176-3.13184-3.13183-6.33594-5.7959A55.69887,55.69887,0,0,0,198.49468,99.18v23.688h-6.9834V72.972h6.9834V95.00419q2.51954-2.37672,5.54492-5.36426,3.02344-2.98682,5.97559-6.01221,2.95165-3.02343,5.58007-5.7959,2.62794-2.77074,4.42774-4.85986Z"/>
      <path d="M263.9063,121.78788q-2.3042.57714-6.084,1.22412a52.26882,52.26882,0,0,1-8.748.64795,18.55916,18.55916,0,0,1-7.27149-1.25977,11.71652,11.71652,0,0,1-4.752-3.56445,14.44993,14.44993,0,0,1-2.5918-5.43555,28.28222,28.28222,0,0,1-.792-6.94824V85.428h6.69531v19.584q0,6.84083,2.16016,9.792,2.16064,2.95313,7.27246,2.95215,1.0796,0,2.23145-.07227,1.15137-.071,2.16015-.17968,1.00782-.1084,1.83594-.21631a5.37279,5.37279,0,0,0,1.18848-.252V85.428h6.69531Z"/>
      <path d="M284.22735,118.04374a13.18407,13.18407,0,0,0,6.084-1.07959,3.65243,3.65243,0,0,0,1.98047-3.45606,4.59145,4.59145,0,0,0-1.94434-3.88818,30.86671,30.86671,0,0,0-6.4082-3.23975q-2.15917-.86425-4.13965-1.76416a14.43045,14.43045,0,0,1-3.41992-2.124,9.25213,9.25213,0,0,1-2.30469-2.95215A10.47723,10.47723,0,0,1,276.8836,87.408q3.67236-2.91577,10.00781-2.916a28.12235,28.12235,0,0,1,3.168.18018q1.58349.18017,2.95214.43164,1.36671.25341,2.41211.54,1.043.28857,1.62012.5039L295.82012,91.908a16.95421,16.95421,0,0,0-3.38477-1.188,21.87181,21.87181,0,0,0-5.54394-.61182,10.23853,10.23853,0,0,0-4.89551,1.11572A3.69869,3.69869,0,0,0,279.908,94.7161a4.75647,4.75647,0,0,0,.46777,2.15967,4.98432,4.98432,0,0,0,1.43946,1.69238,11.864,11.864,0,0,0,2.41211,1.40381q1.43994.6482,3.45605,1.36816,2.66309,1.00856,4.752,1.98a14.88475,14.88475,0,0,1,3.56446,2.26807,8.70174,8.70174,0,0,1,2.26757,3.13184,11.35419,11.35419,0,0,1,.792,4.5,8.92916,8.92916,0,0,1-3.85157,7.84814q-3.85254,2.66456-10.98046,2.66358a28.73227,28.73227,0,0,1-7.77637-.82764q-2.80665-.82691-3.81543-1.26025l1.22363-5.75977q1.15137.43214,3.67188,1.2959A21.18656,21.18656,0,0,0,284.22735,118.04374Z"/>
      <path d="M340.92705,72.972v6.04785H325.23076V122.868h-6.98437V79.01981H302.55108V72.972Z"/>
      <path d="M344.41875,104.22a23.88372,23.88372,0,0,1,1.44043-8.67627,18.12044,18.12044,0,0,1,3.81543-6.15576,15.50593,15.50593,0,0,1,5.47266-3.67188A17.0884,17.0884,0,0,1,361.4832,84.492q7.56006,0,11.5918,4.71582,4.03125,4.71679,4.03223,14.36426v1.11572a10.40673,10.40673,0,0,1-.07227,1.26025H351.40313q.43212,5.83155,3.38379,8.856,2.95165,3.02416,9.21582,3.02393a24.56181,24.56181,0,0,0,5.94043-.61182,21.301,21.301,0,0,0,3.63574-1.188l.93554,5.61573a19.884,19.884,0,0,1-4.2832,1.36816,30.5183,30.5183,0,0,1-6.94824.71973,22.05778,22.05778,0,0,1-8.46-1.47559,15.77057,15.77057,0,0,1-5.86817-4.06836A16.57034,16.57034,0,0,1,345.535,112.032,25.99893,25.99893,0,0,1,344.41875,104.22Zm25.7041-3.67188a11.24618,11.24618,0,0,0-2.26758-7.45215,7.81105,7.81105,0,0,0-6.44433-2.916,8.83287,8.83287,0,0,0-4.06836.8999,9.59821,9.59821,0,0,0-2.98731,2.33984,10.74058,10.74058,0,0,0-1.9082,3.312,16.32788,16.32788,0,0,0-.90039,3.8164Z"/>
      <path d="M402.451,123.73173a20.37482,20.37482,0,0,1-7.95606-1.43995,15.98176,15.98176,0,0,1-5.75976-4.03173,16.71253,16.71253,0,0,1-3.49219-6.15625,25.51526,25.51526,0,0,1-1.15234-7.88379,23.8404,23.8404,0,0,1,1.25976-7.91992,18.68536,18.68536,0,0,1,3.56446-6.228,15.96905,15.96905,0,0,1,5.65234-4.104,18.2838,18.2838,0,0,1,7.45117-1.47607,29.77793,29.77793,0,0,1,5.04.43213,23.25655,23.25655,0,0,1,4.82422,1.36767l-1.51172,5.688a16.17667,16.17667,0,0,0-3.49219-1.15185,19.7262,19.7262,0,0,0-4.21191-.43213q-5.61621,0-8.60449,3.52832Q391.074,97.45219,391.075,104.22a21.08507,21.08507,0,0,0,.6836,5.54394,11.42309,11.42309,0,0,0,2.16015,4.31983,9.61541,9.61541,0,0,0,3.78027,2.772,14.43126,14.43126,0,0,0,5.61622.97217,21.24507,21.24507,0,0,0,4.82324-.50391,17.54451,17.54451,0,0,0,3.38379-1.08008l.93652,5.61621a7.01281,7.01281,0,0,1-1.65625.6836,23.33684,23.33684,0,0,1-2.44824.57617q-1.36817.25122-2.916.43213A26.07819,26.07819,0,0,1,402.451,123.73173Z"/>
      <path d="M419.44219,122.868V68.14774l6.69629-1.15185V86.14774a23.49953,23.49953,0,0,1,8.208-1.51172,18.99665,18.99665,0,0,1,7.416,1.25977,11.6075,11.6075,0,0,1,4.71582,3.52832,13.6548,13.6548,0,0,1,2.48438,5.436,31.63556,31.63556,0,0,1,.71972,6.98389V122.868h-6.69629V103.284a32.0074,32.0074,0,0,0-.46777-5.90381,10.00139,10.00139,0,0,0-1.54785-3.96045,6.13533,6.13533,0,0,0-2.87988-2.1958,12.66418,12.66418,0,0,0-4.46387-.68408,18.049,18.049,0,0,0-2.23242.144q-1.15284.145-2.19629.32422-1.04444.18018-1.87207.396a11.16211,11.16211,0,0,0-1.1875.35986v31.104Z"/>
    </g>
  </g>
</svg>
